<?xml version="1.0" encoding="UTF-8"?>
<!DOCTYPE svg PUBLIC "-//W3C//DTD SVG 1.1//EN" "http://www.w3.org/Graphics/SVG/1.1/DTD/svg11.dtd">
<!-- Creator: CorelDRAW X8 -->
<svg xmlns="http://www.w3.org/2000/svg" xml:space="preserve" width="81mm" height="13mm" version="1.1" style="shape-rendering:geometricPrecision; text-rendering:geometricPrecision; image-rendering:optimizeQuality; fill-rule:evenodd; clip-rule:evenodd"
viewBox="0 0 8100 1300"
 xmlns:xlink="http://www.w3.org/1999/xlink">
 <defs>
  <style type="text/css">
   <![CDATA[
    .fil3 {fill:#00B199}
    .fil8 {fill:#0B97AC}
    .fil7 {fill:#4F72B7}
    .fil2 {fill:#68C1B7}
    .fil5 {fill:#6DB981}
    .fil1 {fill:#A066A9}
    .fil6 {fill:#EE4D7A}
    .fil4 {fill:#F26F54}
    .fil0 {fill:#F69332}
   ]]>
  </style>
 </defs>
 <g id="Layer_x0020_1">
  <metadata id="CorelCorpID_0Corel-Layer"/>
  <g id="_2784350967088">
   <path class="fil0" d="M271 1209l-39 0c-75,0 -136,-57 -136,-132 0,-102 32,-134 140,-161l244 -38c0,112 4,153 -41,227 -29,47 -95,104 -168,104zm5 58l-46 0c-53,-1 -101,-8 -147,-55 -51,-50 -55,-95 -55,-159 0,-101 78,-156 161,-184 32,-11 246,-49 291,-49 0,-61 -5,-122 -38,-166 -38,-51 -82,-57 -142,-57 -97,0 -157,57 -209,92l0 -83c15,-4 23,-12 34,-19 140,-83 423,-105 423,218l0 447 -68 0 0 -131c-5,6 1,-2 -6,9 -1,0 -2,2 -2,3 -43,65 -109,134 -196,134z"/>
   <path class="fil1" d="M3253 1209l-38 0c-81,0 -136,-58 -136,-146 0,-153 169,-154 320,-175 19,-3 45,-8 63,-10 0,113 5,153 -40,227 -29,48 -94,104 -169,104zm-8 58l-55 0c-189,0 -277,-310 -22,-397 50,-17 161,-32 221,-41 25,-3 45,-9 73,-9l0 -34c0,-223 -199,-226 -347,-128l-41 31 0 -83c16,-4 30,-20 67,-34 196,-79 389,-35 389,219l0 461 -68 0 0 -131c-15,17 -23,51 -79,95 -54,42 -90,50 -138,51z"/>
   <path class="fil2" d="M7538 1252l63 0 0 -388c0,-144 83,-267 218,-267 64,0 123,14 153,66 23,40 37,96 37,157l0 432 63 0 0 -471c0,-125 -74,-229 -185,-242 -210,-24 -262,118 -286,135l0 -456 -63 0 0 1034z"/>
   <path class="fil3" d="M5619 1252l68 0 0 -340c20,14 200,207 244,252 28,27 63,54 81,88l98 0 -311 -315c-14,-19 -32,-31 -44,-49 19,-13 97,-95 125,-123 7,-7 13,-11 19,-19 25,-30 176,-173 181,-193 -108,0 -69,-10 -127,52 -30,32 -61,56 -88,92l-131 136c-16,16 -29,33 -47,45l0 -660 -68 0 0 1034z"/>
   <path class="fil4" d="M1199 674l0 -121 -68 0 0 699 68 0 0 -417c0,-33 10,-70 18,-93 11,-30 28,-50 45,-73 40,-52 102,-72 170,-72 143,0 175,128 175,272l0 383 63 0 0 -447c0,-121 -53,-238 -178,-264 -61,-13 -127,-4 -180,23 -38,19 -66,44 -89,76l-24 34z"/>
   <path class="fil5" d="M6916 1073c0,159 -166,153 -265,113 -31,-12 -45,-24 -70,-41l0 78c62,33 84,42 121,44l92 0c48,0 103,-28 128,-52 55,-53 62,-76 62,-152 0,-129 -168,-170 -261,-225 -68,-41 -69,-64 -69,-130 0,-76 78,-111 160,-111 74,0 124,41 150,48l0 -73c-172,-91 -406,-8 -379,180 13,88 81,137 156,170 60,26 175,70 175,151z"/>
   <path class="fil6" d="M2287 368l0 185 -127 0 0 58 127 0 0 496c0,104 63,154 136,160l29 0c28,-2 56,-11 83,-24l0 -59c-22,5 -185,97 -185,-111l0 -462 185 0 0 -58 -185 0 0 -204c-12,6 -47,18 -63,19z"/>
   <path class="fil7" d="M4181 694l0 -141 -63 0 0 699 63 0 0 -369c0,-161 102,-350 267,-262l0 -68c-95,-46 -209,11 -252,112l-15 29z"/>
   <polygon class="fil8" points="4953,1252 5021,1252 5021,553 4953,553 "/>
   <path class="fil8" d="M4341 38c6,13 0,3 10,10 37,25 24,23 24,150 0,48 -25,12 -34,44l83 0 0 -15c-32,0 -34,-13 -34,-63 0,-32 0,-64 0,-97 11,13 11,21 18,41l50 134c17,-13 53,-119 67,-152l7 -17c1,-1 2,-2 2,-3 0,0 1,-2 2,-3 0,34 0,68 0,102 1,103 -23,30 -34,73l92 0c-6,-23 -3,-9 -24,-19l0 -170c11,-3 11,-4 24,-5l0 -15 -68 0c-1,16 -43,139 -58,151 -2,-19 -19,-56 -26,-76 -9,-24 -23,-53 -28,-75l-1 0 -50 0c-11,1 -19,2 -22,5z"/>
   <path class="fil8" d="M3783 38c10,25 29,5 29,29l0 146c0,31 -20,-4 -29,29l170 0c5,-24 5,-34 5,-63 -19,5 -13,7 -23,26 -15,29 -24,22 -74,22 -23,0 -15,-27 -15,-82 30,0 50,-7 53,34l15 0 0 -83 -15 0c-7,32 -14,34 -53,34l0 -82c39,0 72,-5 83,39l14 0 0 -54 -133 0c-15,1 -25,3 -27,5z"/>
   <path class="fil8" d="M4147 87c1,15 18,56 24,68l-53 0c2,-19 15,-58 29,-68zm-102 155l78 0c-7,-25 -6,-8 -29,-19 1,-16 9,-38 14,-49l73 0c2,27 13,30 15,53l-25 0 0 15 83 0 0 -15c-34,-2 -28,-22 -54,-86 -8,-19 -37,-90 -38,-108l-20 0c-1,18 -48,135 -61,167 -18,42 -29,15 -36,42z"/>
   <path class="fil8" d="M3506 91l15 0c3,-40 30,-43 58,-43l0 165c0,32 -25,-5 -34,29l97 0c-9,-33 -29,2 -29,-29l0 -165c68,0 31,40 73,43 0,-41 9,-54 -19,-58l-161 0 0 58z"/>
   <path class="fil8" d="M4934 320c0,81 107,74 107,5 0,-65 -107,-70 -107,-5z"/>
  </g>
 </g>
</svg>
