<?xml version="1.0" encoding="UTF-8"?>
<!DOCTYPE svg PUBLIC "-//W3C//DTD SVG 1.1//EN" "http://www.w3.org/Graphics/SVG/1.1/DTD/svg11.dtd">
<!-- Creator: CorelDRAW X8 -->
<svg xmlns="http://www.w3.org/2000/svg" xml:space="preserve" width="26mm" height="13mm" version="1.1" style="shape-rendering:geometricPrecision; text-rendering:geometricPrecision; image-rendering:optimizeQuality; fill-rule:evenodd; clip-rule:evenodd"
viewBox="0 0 2600 1300"
 xmlns:xlink="http://www.w3.org/1999/xlink">
 <defs>
  <style type="text/css">
   <![CDATA[
    .fil1 {fill:#00B199}
    .fil3 {fill:#68C1B7}
    .fil2 {fill:#856AAE}
    .fil5 {fill:#EE4D7A}
    .fil4 {fill:#F26F54}
    .fil0 {fill:#F69332}
   ]]>
  </style>
 </defs>
 <g id="Layer_x0020_1">
  <metadata id="CorelCorpID_0Corel-Layer"/>
  <g id="_2462547907152">
   <path class="fil0" d="M415 569l23 4 -10 20c-23,53 -44,110 -57,172 -12,63 -23,141 -23,204 0,28 10,46 10,75 14,-1 53,-17 66,-23l122 -54c19,-8 40,-17 60,-25 32,-13 64,-25 94,-40 10,-4 15,-10 28,-15 41,-17 83,-33 125,-49 43,-18 80,-37 127,-50 11,-4 21,-8 29,-15 15,-14 27,-31 43,-44 10,-7 14,-13 22,-21 5,-4 8,-5 13,-10 2,-2 4,-4 5,-6l27 5c-21,18 -41,37 -62,58 -22,22 -28,36 -59,50 -11,5 -29,9 -41,13 -60,22 -124,55 -190,79 -26,9 -50,20 -75,32 -36,18 -150,67 -190,81 -15,5 -21,12 -35,17l-78 30c-7,3 -13,5 -19,9 -8,5 -7,7 -13,14 -8,6 -28,11 -39,14 -26,10 -50,20 -79,29 -43,12 -120,28 -166,8 -6,-2 -5,-3 -9,-5 -3,-2 -5,-2 -9,-5 -9,-4 -8,-8 -16,-11 19,28 11,14 28,29 0,0 1,1 1,1 0,0 1,2 2,2 0,0 2,2 2,3 37,41 176,28 227,20 14,-3 28,-6 42,-9 28,-6 55,-14 83,-18 14,-3 29,-4 43,-9 78,-25 159,-43 236,-69 29,-10 129,-44 160,-44 1,10 3,14 12,16 0,-18 27,-61 36,-74 15,-23 29,-43 45,-64 51,-69 36,-35 54,-56l55 -52c9,-9 19,-20 28,-27 11,-9 20,-17 31,-25 5,-5 8,-8 14,-12 6,-5 10,-8 16,-12 2,-2 5,-3 7,-5l29 5c-28,20 -55,42 -68,54l-32 28c-15,16 -36,32 -45,44 9,-1 18,-3 28,-4 45,-3 42,3 67,-25 9,-11 19,-24 29,-33 4,-4 5,-4 9,-7 3,-3 5,-5 8,-8l47 -41 24 5c-13,10 -25,22 -37,35l-35 34c-67,67 -47,60 -75,90l-23 31c-19,28 -35,58 -49,88 -26,52 -58,129 -36,188 4,10 6,25 14,31 2,-6 1,-5 9,-6 5,-1 8,-1 14,-2 118,-16 239,-72 359,-82 6,13 6,29 14,42 8,12 16,21 28,30 79,54 215,6 295,-15 100,-25 124,-34 237,-34 48,0 120,10 153,10 12,0 15,2 25,2 74,3 154,-10 217,-28 29,-8 134,-39 149,-62 -20,1 -87,33 -188,33l-78 -4c-6,-1 -6,-1 -14,-2 -15,0 -48,0 -58,-6 0,0 -1,0 -1,-1 -21,-12 -48,-15 -72,-20 -102,-21 -145,-37 -253,-37 -54,0 -80,10 -115,10 -41,0 -5,-61 -39,-99 -12,-13 -22,-22 -40,-29 -55,-21 -123,-1 -179,7 -55,8 -172,33 -230,48 -20,5 -34,11 -54,17 -71,20 -59,-6 -30,-50 37,-56 -2,-99 25,-126 13,-13 28,-22 40,-36 17,-20 40,-36 63,-51l32 6c-9,7 -19,13 -28,20 -58,38 -29,21 -64,53 -24,22 -33,17 -31,44 1,12 4,19 4,33 0,27 -12,47 -21,69 -4,8 -9,12 -10,19 16,-1 78,-20 99,-26 67,-16 137,-32 205,-44 43,-7 83,-14 129,-14 55,0 110,29 125,78 7,21 4,38 4,59 18,0 28,-4 44,-6 27,-5 61,-4 89,-4 135,0 259,51 309,51 0,-17 4,-31 4,-49 0,-18 2,-30 2,-49l-3 -78 22 5c4,53 1,105 -5,183 17,0 33,4 49,4 51,1 108,3 159,-4 11,-2 23,-4 35,-6 11,-2 20,-6 30,-9 20,-7 40,-12 61,-20 23,-8 34,-14 66,-14 -7,10 -13,20 -23,29 -9,10 -16,15 -27,23 -55,40 -147,71 -214,88 -56,14 -81,12 -134,18 -22,3 -114,-6 -141,-7 -80,-4 -140,-6 -220,5 -35,5 -65,11 -99,21 -30,9 -62,20 -93,27 -83,18 -190,36 -248,-43 -30,-41 -1,-42 -69,-28 -16,3 -27,7 -42,10 -29,8 -232,55 -249,65 1,5 6,5 9,11 5,8 6,15 6,26 -55,0 -82,-75 -82,-124 0,-55 23,-119 42,-157 6,-12 11,-22 18,-33 6,-12 11,-21 18,-31 11,-17 35,-44 35,-64 0,-22 -12,-8 -31,-10 -9,-2 -3,-5 -14,-8 -1,4 -1,6 -1,12 -7,0 -15,3 -23,5 -8,2 -14,3 -19,8l-67 95c-22,33 -58,107 -58,160 0,86 25,83 56,114 4,3 25,31 11,31 -22,0 -36,-4 -51,-16 -11,-8 -20,-22 -27,-34 -58,-95 -14,-128 -14,-183 -16,1 -42,13 -55,17 -88,29 -187,54 -278,80 -9,2 -19,5 -28,9 -8,3 -15,10 -23,11 -12,2 -23,0 -34,2 -102,18 -275,80 -381,-4 -23,-18 -48,-52 -48,-94l2 -58 28 2c0,40 1,63 21,84 16,18 42,29 75,29 101,0 127,-34 207,-53 0,-15 -2,-31 -3,-45l-2 -84c0,-71 13,-136 28,-203 12,-54 32,-110 58,-164z"/>
   <path class="fil1" d="M1813 199l-36 1c-49,-31 -110,-62 -162,-86l-64 -24c-28,-10 -60,-18 -92,-24 -141,-28 -272,-29 -412,6 -68,17 -147,43 -207,78 -7,4 -13,7 -19,11 -7,4 -12,6 -18,10 -20,12 -48,30 -73,48l-36 1c2,-2 4,-3 6,-5 55,-43 114,-81 178,-109 56,-24 111,-43 172,-56 90,-20 160,-25 256,-25 71,0 177,16 242,42 39,15 63,20 103,40l56 29c12,7 24,12 36,20 40,23 46,25 70,43z"/>
   <path class="fil2" d="M1813 199l-36 1c3,2 6,3 9,5 23,16 43,34 65,51l90 84c19,19 37,41 53,63 27,36 60,82 80,123 28,55 40,79 61,143 17,51 44,161 46,216l1 6 22 5c-3,-46 -11,-91 -26,-154 -14,-59 -33,-121 -57,-171 -3,-7 -5,-12 -8,-19 -3,-6 -7,-13 -10,-19 -6,-14 -13,-25 -20,-37 -7,-13 -14,-24 -22,-36 -21,-34 -46,-67 -71,-98 -18,-23 -21,-22 -27,-30 -15,-18 -67,-64 -86,-83 -10,-10 -20,-16 -31,-25 -15,-11 -25,-19 -33,-25zm-1083 20l-36 1c-3,3 -6,5 -10,8 -13,10 -49,37 -58,49 -2,3 -1,1 -4,4 -19,18 -13,6 -29,28 -10,15 -36,35 -55,59 -44,57 -88,127 -123,201l23 4 18 -37c24,-48 78,-132 115,-169l14 -15c2,-3 4,-4 6,-7 17,-18 31,-37 51,-51 6,-5 8,-9 14,-14 7,-5 10,-7 16,-13 14,-15 35,-32 58,-48zm362 473l27 5c17,-14 34,-27 54,-41l96 -64c6,-4 11,-7 17,-11 30,-19 -8,-48 -8,-72 0,-25 8,-37 35,-40 25,-4 47,11 65,27 27,25 32,31 75,31 21,0 38,-14 54,-20 29,-13 42,-11 42,-45 0,-21 -25,-30 -37,-41 -9,-9 -4,-10 -8,-20 44,-21 143,19 182,20 9,0 12,1 18,2 14,1 42,-5 56,-9 20,-6 39,-19 65,-19 27,0 48,7 70,13 10,2 21,5 32,8 9,3 25,5 31,13 -7,9 -37,21 -50,26l-166 65c-55,22 -142,62 -192,79 -5,2 -9,3 -14,5 -23,9 -43,22 -66,30 -19,6 -38,13 -56,21 -31,14 -68,38 -96,58 -8,5 -17,11 -25,16l32 6c22,-14 43,-29 65,-42l26 -13c9,-5 17,-9 27,-13 27,-10 57,-21 83,-34 39,-19 96,-37 138,-56 45,-20 91,-40 138,-56 38,-12 73,-32 111,-45 20,-8 71,-22 71,-47 0,-26 -49,-34 -68,-38 -31,-7 -64,-17 -99,-17 -45,0 -42,25 -121,25 -53,0 -115,-33 -175,-25 -16,2 -39,9 -39,29 0,24 11,25 22,40 10,14 23,7 23,33 -54,12 -48,29 -82,29 -15,0 -27,-3 -37,-11 -31,-23 -35,-48 -96,-48 -10,0 -18,3 -24,6 -31,18 -42,48 -25,82 5,9 7,17 12,26l-25 18c-54,36 -111,69 -158,114zm69 13l29 5c29,-20 58,-39 72,-45 22,-9 6,1 20,-11 8,-7 34,-24 41,-24 6,0 8,2 12,4 -6,9 -5,9 -14,15 -29,19 -7,1 -35,26 -7,6 -10,5 -19,13 -3,2 -4,4 -7,7l-27 23 24 5c9,-8 18,-15 29,-22 22,-13 26,-21 48,-34 26,-15 35,-30 11,-50 -31,-25 -48,3 -92,29 -23,14 -46,27 -68,42 -9,5 -16,11 -24,17z"/>
   <path class="fil2" d="M1736 810l12 2 -3 22c2,-1 10,-10 19,-19l14 3c-4,3 -5,6 -10,12 -6,5 -10,8 -15,15 -5,7 -8,9 -14,15 -10,11 -5,11 -14,13 1,-2 8,-40 11,-63zm50 9l21 4c6,6 10,10 12,11 -1,-2 -1,-6 -2,-9l13 2c4,21 8,44 9,46 -8,-2 -5,-1 -9,-7 -3,-3 -3,-4 -6,-7l-38 -40z"/>
   <path class="fil2" d="M1736 810l12 2 4 -31c-15,0 -37,-4 -52,-4l45 -25c-1,-9 -9,-16 -13,-23l-15 -22c15,3 39,17 49,17 3,-4 14,-42 14,-49l4 0c0,7 11,44 14,49 10,0 33,-14 48,-17 -2,10 -26,33 -27,45l45 25c-16,0 -37,4 -53,4 0,11 3,30 6,44l13 2c-3,-16 -5,-31 -5,-34l82 -6c-8,-7 -67,-38 -70,-39 2,-9 38,-59 45,-68 -8,0 -30,10 -39,14 -12,5 -26,9 -38,15 -3,-14 -8,-27 -11,-40 -2,-9 -9,-35 -14,-39 0,11 -18,62 -22,79l-76 -29 34 49c5,6 9,12 11,19l-71 39 83 6c0,2 -1,9 -3,17zm28 5l14 3c1,-1 2,-2 4,-3l4 4 21 4c-9,-10 -22,-24 -23,-28l-4 0c-1,3 -8,12 -16,20zm82 -108l0 0 0 0zm-129 0l0 0 0 0z"/>
   <path class="fil3" d="M1235 315c12,3 22,10 32,12 2,-4 9,-28 10,-33 0,0 0,0 0,1 0,1 1,1 1,1l8 31c13,-3 21,-9 34,-12 -3,5 -7,9 -10,14 -3,4 -9,10 -10,16 7,1 9,3 15,7 3,2 4,2 7,4 3,1 2,0 4,2 4,2 1,0 3,2l-33 2c0,14 4,21 4,33 -7,-4 -17,-16 -22,-23 -12,9 -17,20 -25,25 2,-8 6,-26 6,-35l-31 -4 25 -13c-2,-8 -13,-23 -18,-30zm24 -6c-10,-1 -43,-18 -57,-21 2,5 20,32 26,39 3,5 6,7 7,14 -7,1 -45,23 -52,29 19,2 38,4 60,4 0,21 -8,40 -8,61 11,-8 33,-38 42,-44 10,7 34,40 43,46l-10 -63c22,0 42,-2 62,-4l-26 -15c-7,-4 -19,-13 -26,-14 0,-8 3,-8 7,-14l26 -39c-10,2 -19,7 -28,11l-31 10c-1,-8 -5,-22 -7,-29 -3,-7 -7,-24 -10,-30l-18 59z"/>
   <path class="fil4" d="M1002 474l0 0zm0 0l0 -16 -15 0c4,-4 6,-6 13,-8 -2,-8 -3,-6 -6,-13 9,0 7,2 14,4 1,-6 3,-11 4,-16 4,5 4,11 6,16 4,-2 11,-5 16,-6 -4,5 -8,8 -8,15l14 8 -18 0c0,8 2,6 2,16 -7,-4 -6,-8 -14,-10 -2,6 -3,6 -8,10zm-8 -37l0 0zm10 -6c-9,-1 -19,-8 -29,-10 3,11 13,15 15,27 -5,2 -9,4 -13,6 -1,1 -5,3 -6,4 -6,4 -4,-1 -6,6l29 0c0,14 -3,20 -4,31 7,-2 3,-1 12,-10 4,-4 7,-6 10,-11 16,10 12,18 24,21 -2,-3 -6,-26 -6,-31l31 0c-2,-5 -3,-4 -11,-9 -6,-3 -8,-5 -14,-7 0,-7 3,-9 7,-14 4,-5 5,-8 8,-13 -9,1 -19,7 -29,10 -1,-6 -6,-24 -10,-30 -2,9 -7,21 -8,30z"/>
   <path class="fil5" d="M1376 168l12 3 4 -13c1,5 2,8 4,12 8,0 6,-2 14,-4 -3,5 -7,8 -8,14l12 6c-20,0 -13,2 -12,16 -5,-4 -6,-4 -8,-10 -7,2 -6,4 -12,8 0,-13 5,-14 -11,-14 3,-3 4,-5 9,-6 -1,-6 -2,-6 -4,-12zm0 0l0 0zm6 -6c-6,-3 -17,-8 -25,-9 2,6 5,8 7,13 5,11 -2,0 7,12 -7,2 -21,9 -24,14 12,0 16,2 27,2 0,7 -1,22 -3,27 6,-2 7,-4 10,-9 4,-4 6,-6 9,-10l21 20c0,-10 -3,-20 -3,-28 11,0 16,-2 29,-2l-25 -16c5,-7 11,-16 15,-23 -6,0 -22,7 -27,9 -1,-7 -5,-24 -10,-27 0,6 -6,23 -8,27z"/>
  </g>
 </g>
</svg>
