<?xml version="1.0" encoding="UTF-8"?>
<!DOCTYPE svg PUBLIC "-//W3C//DTD SVG 1.1//EN" "http://www.w3.org/Graphics/SVG/1.1/DTD/svg11.dtd">
<!-- Creator: CorelDRAW X8 -->
<svg xmlns="http://www.w3.org/2000/svg" xml:space="preserve" width="210mm" height="297mm" version="1.1" style="shape-rendering:geometricPrecision; text-rendering:geometricPrecision; image-rendering:optimizeQuality; fill-rule:evenodd; clip-rule:evenodd"
viewBox="0 0 21000 29700"
 xmlns:xlink="http://www.w3.org/1999/xlink">
 <defs>
  <style type="text/css">
   <![CDATA[
    .fil0 {fill:#FEFEFE}
   ]]>
  </style>
 </defs>
 <g id="Layer_x0020_1">
  <metadata id="CorelCorpID_0Corel-Layer"/>
  <g id="_2399919627840">
   <path class="fil0" d="M1889 16123l-88 0c-171,0 -310,-129 -310,-299 0,-233 72,-307 318,-368l556 -86c0,255 9,349 -93,516 -66,108 -216,237 -383,237zm11 133l-105 0c-121,-2 -229,-18 -335,-124 -115,-115 -124,-217 -124,-363 0,-230 178,-356 366,-420 74,-25 561,-112 663,-112 0,-138 -12,-278 -87,-378 -86,-116 -185,-131 -323,-131 -221,0 -357,132 -475,211l0 -189c34,-9 51,-28 77,-44 317,-188 963,-238 963,498l0 1018 -155 0 0 -298c-11,12 2,-4 -14,19 -1,2 -3,4 -4,6 -98,149 -247,307 -447,307z"/>
   <path class="fil0" d="M8685 16123l-89 0c-184,0 -310,-132 -310,-332 0,-348 387,-352 730,-399 44,-6 102,-18 145,-22 0,258 11,348 -92,517 -67,110 -214,236 -384,236zm-20 133l-124 0c-432,0 -633,-706 -51,-904 113,-39 368,-74 504,-93 57,-8 103,-22 167,-22l0 -77c0,-509 -454,-516 -791,-292l-95 71 0 -189c37,-9 69,-45 154,-79 446,-179 887,-78 887,500l0 1051 -155 0 0 -298c-34,38 -52,115 -182,216 -122,96 -203,113 -314,116z"/>
   <path class="fil0" d="M18447 16222l144 0 0 -885c0,-327 190,-609 498,-609 144,0 279,34 347,151 53,92 84,219 84,358l0 985 144 0 0 -1073c0,-286 -169,-523 -422,-552 -476,-54 -597,269 -651,308l0 -1040 -144 0 0 2357z"/>
   <path class="fil0" d="M14075 16222l155 0 0 -774c45,30 455,471 556,572 63,63 145,125 185,202l222 0 -709 -719c-31,-42 -72,-70 -99,-111 44,-29 222,-217 285,-279 16,-17 29,-27 44,-45 56,-67 400,-393 412,-439 -246,0 -158,-23 -290,119 -68,73 -139,127 -201,208l-297 312c-37,37 -67,74 -108,102l0 -1505 -155 0 0 2357z"/>
   <path class="fil0" d="M4003 14905l0 -276 -155 0 0 1593 155 0 0 -951c0,-75 24,-159 43,-212 24,-69 62,-114 101,-165 90,-118 234,-166 387,-166 326,0 399,293 399,620l0 874 144 0 0 -1018c0,-277 -120,-544 -405,-602 -139,-29 -290,-9 -411,52 -85,43 -150,100 -203,174l-55 77z"/>
   <path class="fil0" d="M17030 15813c0,362 -378,349 -602,259 -73,-29 -105,-55 -162,-93l0 177c143,75 192,95 277,100l210 0c109,0 234,-64 291,-119 125,-121 141,-172 141,-346 0,-293 -383,-388 -594,-513 -156,-92 -159,-145 -159,-295 0,-174 179,-255 366,-255 169,0 283,95 343,111l0 -166c-392,-207 -926,-20 -865,410 29,200 184,311 356,387 137,60 398,159 398,343z"/>
   <path class="fil0" d="M6482 14208l0 421 -287 0 0 132 287 0 0 1129c0,238 144,353 310,366l66 0c64,-5 129,-24 189,-56l0 -133c-50,12 -421,221 -421,-254l0 -1052 421 0 0 -132 -421 0 0 -465c-27,13 -108,41 -144,44z"/>
   <path class="fil0" d="M10799 14950l0 -321 -144 0 0 1593 144 0 0 -841c0,-367 231,-797 609,-597l0 -155c-218,-105 -476,25 -576,254l-33 67z"/>
   <polygon class="fil0" points="12559,16222 12714,16222 12714,14629 12559,14629 "/>
   <path class="fil0" d="M11164 13455c12,30 -2,7 22,23 83,57 56,54 56,343 0,108 -58,26 -78,99l188 0 0 -33c-73,-2 -78,-31 -78,-144 1,-73 1,-147 1,-221 25,29 24,48 40,93l115 305c39,-28 120,-270 151,-346l18 -38c1,-2 3,-6 4,-7 1,-2 2,-5 4,-7 0,77 -1,155 0,232 2,235 -51,67 -78,166l211 0c-14,-51 -8,-21 -56,-44l0 -387c26,-6 26,-9 56,-11l0 -34 -155 0c-3,36 -98,317 -133,343 -4,-43 -43,-126 -60,-172 -19,-55 -50,-121 -62,-171l-2 0 -115 0c-24,2 -43,5 -49,11z"/>
   <path class="fil0" d="M9891 13455c23,57 67,11 67,67l0 332c0,70 -47,-8 -67,66l388 0c12,-53 11,-77 11,-144 -44,12 -29,16 -52,59 -35,67 -54,52 -170,52 -51,0 -33,-62 -33,-188 69,0 114,-15 122,77l33 0 0 -188 -33 0c-17,73 -34,78 -122,78l0 -188c88,0 165,-12 188,88l33 0 0 -122 -303 0c-33,2 -57,6 -62,11z"/>
   <path class="fil0" d="M10721 13566c3,35 42,128 56,155l-122 0c3,-42 35,-132 66,-155zm-232 354l177 0c-15,-56 -13,-19 -66,-44 3,-35 20,-85 33,-111l166 0c5,61 29,68 33,122l-55 0 0 33 188 0 0 -33c-78,-6 -64,-51 -123,-198 -17,-41 -84,-203 -87,-245l-45 0c-3,42 -110,308 -140,380 -40,95 -64,34 -81,96z"/>
   <path class="fil0" d="M9260 13577l34 0c7,-92 69,-99 132,-99l0 376c0,74 -56,-11 -77,66l221 0c-20,-74 -66,4 -66,-66l0 -376c156,0 71,91 166,99 0,-94 21,-124 -43,-133l-367 0 0 133z"/>
   <path class="fil0" d="M12514 14097c0,185 244,169 244,11 0,-146 -244,-157 -244,-11z"/>
  </g>
 </g>
</svg>
